<svg width="876" height="780" xmlns="http://www.w3.org/2000/svg"><defs><linearGradient x1="50%" y1="0%" x2="50%" y2="100%" id="b"><stop stop-color="#268DF7" offset="0%"/><stop stop-color="#268DF7" stop-opacity="0" offset="100%"/></linearGradient><radialGradient cx="33.3%" cy="43.394%" fx="33.3%" fy="43.394%" r="57.989%" gradientTransform="matrix(.2477 -.96494 .91064 .26247 -.145 .641)" id="c"><stop stop-color="#FF6C50" stop-opacity="0" offset="0%"/><stop stop-color="#FF6C50" stop-opacity=".64" offset="51.712%"/><stop stop-color="#FF6C50" stop-opacity=".24" offset="100%"/></radialGradient><linearGradient x1="50%" y1="0%" x2="50%" y2="100%" id="d"><stop stop-color="#268DF7" stop-opacity=".8" offset="0%"/><stop stop-color="#268DF7" stop-opacity="0" offset="100%"/></linearGradient><filter id="a"><feTurbulence type="fractalNoise" numOctaves="2" baseFrequency=".3" result="turb"/><feComposite in="turb" operator="arithmetic" k1=".1" k2=".1" k3=".1" k4=".1" result="result1"/><feComposite operator="in" in="result1" in2="SourceGraphic" result="finalFilter"/><feBlend mode="multiply" in="finalFilter" in2="SourceGraphic"/></filter></defs><g fill="none" fill-rule="evenodd" filter="url(#a)"><path d="M173.286 346.278c37.75 237.363 436.799-108.302 173.285-173.139C83.058 108.302 268.99 0 173.286 0S0 77.517 0 173.14c0 95.621 135.536-64.225 173.286 173.138z" transform="matrix(-1 0 0 1 655 203)" fill="url(#b)"/><path d="M201.208 353c94.993 0 172-77.007 172-172s-98.8-212.473-172-172c-73.2 40.473-73.2 222.973-172 172-98.8-50.973 77.007 172 172 172z" transform="matrix(-1 0 0 1 805.208 0)" fill="url(#c)"/><path d="M173.286 346.278c37.75 237.363 436.799-108.302 173.285-173.139C83.058 108.302 268.99 0 173.286 0S0 77.517 0 173.14c0 95.621 135.536-64.225 173.286 173.138z" transform="translate(219 203)" fill="url(#d)"/><path fill="#C1C3DA" d="M260.608 103l-3.624 1.667-.984 3.53 1.158 3.36 3.45 1.443 3.249-1.639 2.143-3.165-1.62-3.674z"/><path fill-opacity=".64" fill="#FF6C50" d="M262.304 142l-1.812.833-.492 1.765.579 1.68 1.725.722 1.624-.82 1.072-1.582-.81-1.837z"/><path fill-opacity=".64" fill="#4234F8" d="M234.686 124l-2.899 1.334-.787 2.823.926 2.688 2.76 1.155 2.6-1.31 1.714-2.533-1.295-2.94z"/></g></svg>