<svg width="876" height="764" xmlns="http://www.w3.org/2000/svg"><defs><linearGradient x1="50%" y1="0%" x2="50%" y2="100%" id="b"><stop stop-color="#4234F8" offset="0%"/><stop stop-color="#4234F8" stop-opacity="0" offset="100%"/></linearGradient><radialGradient cx="33.3%" cy="43.394%" fx="33.3%" fy="43.394%" r="58.676%" gradientTransform="scale(.81337 1) rotate(-72.484 .371 .382)" id="c"><stop stop-color="#FF6C50" stop-opacity="0" offset="0%"/><stop stop-color="#FF6C50" stop-opacity=".64" offset="51.712%"/><stop stop-color="#FF6C50" stop-opacity=".24" offset="100%"/></radialGradient><linearGradient x1="50%" y1="0%" x2="50%" y2="100%" id="d"><stop stop-color="#4234F8" stop-opacity=".8" offset="0%"/><stop stop-color="#4234F8" stop-opacity="0" offset="100%"/></linearGradient><filter id="a"><feTurbulence type="fractalNoise" numOctaves="2" baseFrequency=".3" result="turb"/><feComposite in="turb" operator="arithmetic" k1=".1" k2=".1" k3=".1" k4=".1" result="result1"/><feComposite operator="in" in="result1" in2="SourceGraphic" result="finalFilter"/><feBlend mode="multiply" in="finalFilter" in2="SourceGraphic"/></filter></defs><g fill="none" fill-rule="evenodd" filter="url(#a)"><path d="M173.286 346.278c37.75 237.363 436.799-108.302 173.285-173.139C83.058 108.302 268.99 0 173.286 0S0 77.517 0 173.14c0 95.621 135.536-64.225 173.286 173.138z" transform="translate(217 195)" fill="url(#b)"/><path d="M251 344c94.993 0 172-77.007 172-172S345.993 0 251 0s46.934 178.387-172 172c-218.934-6.387 77.007 172 172 172z" transform="translate(19)" fill="url(#c)"/><path d="M173.286 346.278c37.75 237.363 436.799-108.302 173.285-173.139C83.058 108.302 268.99 0 173.286 0S0 77.517 0 173.14c0 95.621 135.536-64.225 173.286 173.138z" transform="matrix(-1 0 0 1 653 195)" fill="url(#d)"/><path fill="#C1C3DA" d="M640.608 179l-3.624 1.667-.984 3.53 1.158 3.36 3.45 1.443 3.249-1.639 2.143-3.165-1.62-3.674z"/><path fill-opacity=".64" fill="#FF6C50" d="M642.304 218l-1.812.833-.492 1.765.579 1.68 1.725.722 1.624-.82 1.072-1.582-.81-1.837z"/><path fill-opacity=".64" fill="#268DF7" d="M614.686 200l-2.899 1.334-.787 2.823.926 2.688 2.76 1.155 2.6-1.31 1.714-2.533-1.295-2.94z"/></g></svg>